<svg width="14" height="18" viewBox="0 0 14 18" fill="none" xmlns="http://www.w3.org/2000/svg">
    <mask id="mask0_31_5875" style="mask-type:luminance" maskUnits="userSpaceOnUse" x="0" y="0"
        width="14" height="18">
        <rect x="0.5" width="13.5" height="18" fill="white" />
    </mask>
    <g mask="url(#mask0_31_5875)">
        <path fill-rule="evenodd" clip-rule="evenodd"
            d="M11.7043 9.44646C11.6973 8.15623 12.2809 7.1824 13.4621 6.46521C12.8012 5.51951 11.8027 4.9992 10.4844 4.89725C9.23633 4.79881 7.87227 5.62498 7.37305 5.62498C6.8457 5.62498 5.63633 4.9324 4.68711 4.9324C2.72539 4.96404 0.640625 6.49685 0.640625 9.61521C0.640625 10.5363 0.809375 11.4879 1.14687 12.4699C1.59688 13.7601 3.22109 16.9242 4.91563 16.8715C5.80156 16.8504 6.42734 16.2422 7.58047 16.2422C8.69844 16.2422 9.27852 16.8715 10.2664 16.8715C11.975 16.8469 13.4445 13.9711 13.8734 12.6773C11.5813 11.598 11.7043 9.51326 11.7043 9.44647L11.7043 9.44646ZM9.71444 3.67383C10.6742 2.53477 10.5863 1.49766 10.5582 1.125C9.71093 1.17422 8.73007 1.70156 8.17108 2.35195C7.55585 3.04805 7.19374 3.90937 7.27108 4.87969C8.18866 4.95 9.02538 4.47891 9.71444 3.67383Z"
            fill="white" />
    </g>
</svg>
    