<svg width="19" height="18" viewBox="0 0 19 18" fill="none" xmlns="http://www.w3.org/2000/svg">
    <mask id="mask0_31_5867" style="mask-type:luminance" maskUnits="userSpaceOnUse" x="0" y="0"
        width="19" height="18">
        <rect x="0.5" width="18" height="18" fill="white" />
    </mask>
    <g mask="url(#mask0_31_5867)">
        <path fill-rule="evenodd" clip-rule="evenodd"
            d="M9.5 1.875C5.56498 1.875 2.37501 5.06496 2.375 8.99998C2.37499 12.935 5.56494 16.125 9.49997 16.125C13.435 16.125 16.625 12.9351 16.625 9.00003C16.625 5.06501 13.4351 1.87503 9.50003 1.875H9.5Z"
            fill="#039BE5" />
        <path fill-rule="evenodd" clip-rule="evenodd"
            d="M10.465 10.8889H12.3089L12.5984 9.01578H10.4646V7.99203C10.4646 7.21391 10.7189 6.52391 11.4467 6.52391H12.6164V4.88928C12.4109 4.86153 11.9762 4.80078 11.155 4.80078C9.44012 4.80078 8.43475 5.70641 8.43475 7.76966V9.01578H6.67188V10.8889H8.43475V16.0373C8.78387 16.0898 9.1375 16.1254 9.5005 16.1254C9.82862 16.1254 10.1489 16.0954 10.465 16.0527V10.8889Z"
            fill="white" />
    </g>
</svg>
    