<svg width="19" height="18" viewBox="0 0 19 18" fill="none" xmlns="http://www.w3.org/2000/svg">
    <mask id="mask0_31_5859" style="mask-type:luminance" maskUnits="userSpaceOnUse" x="0" y="0"
        width="19" height="18">
        <rect x="0.5" width="18" height="18" fill="white" />
    </mask>
    <g mask="url(#mask0_31_5859)">
        <path fill-rule="evenodd" clip-rule="evenodd"
            d="M16.8541 7.53113H16.25V7.5H9.5V10.5H13.7386C13.1203 12.2464 11.4586 13.5 9.5 13.5C7.01488 13.5 5 11.4851 5 9C5 6.51488 7.01488 4.5 9.5 4.5C10.6471 4.5 11.6908 4.93275 12.4854 5.63963L14.6067 3.51825C13.2673 2.26987 11.4755 1.5 9.5 1.5C5.35813 1.5 2 4.85813 2 9C2 13.1419 5.35813 16.5 9.5 16.5C13.6419 16.5 17 13.1419 17 9C17 8.49713 16.9482 8.00625 16.8541 7.53113Z"
            fill="#FFC107" />
        <path fill-rule="evenodd" clip-rule="evenodd"
            d="M2.86523 5.50912L5.32936 7.31625C5.99611 5.6655 7.61086 4.5 9.50049 4.5C10.6476 4.5 11.6912 4.93275 12.4859 5.63962L14.6072 3.51825C13.2677 2.26987 11.476 1.5 9.50049 1.5C6.61974 1.5 4.12148 3.12637 2.86523 5.50912Z"
            fill="#FF3D00" />
        <path fill-rule="evenodd" clip-rule="evenodd"
            d="M9.50012 16.5003C11.4374 16.5003 13.1976 15.7589 14.5285 14.5533L12.2072 12.589C11.4542 13.1594 10.5182 13.5003 9.50012 13.5003C7.54937 13.5003 5.89299 12.2564 5.26899 10.5205L2.82324 12.4049C4.06449 14.8338 6.58524 16.5003 9.50012 16.5003Z"
            fill="#4CAF50" />
        <path fill-rule="evenodd" clip-rule="evenodd"
            d="M16.8541 7.53113H16.25V7.5H9.5V10.5H13.7386C13.4416 11.3389 12.902 12.0623 12.206 12.5891C12.2064 12.5888 12.2068 12.5887 12.2071 12.5884L14.5284 14.5526C14.3641 14.7019 17 12.75 17 9C17 8.49713 16.9482 8.00625 16.8541 7.53113Z"
            fill="#1976D2" />
    </g>
</svg>
    