<svg width="32" height="33" viewBox="0 0 32 33" fill="none" xmlns="http://www.w3.org/2000/svg">
    <path fill-rule="evenodd" clip-rule="evenodd" d="M32 16.0103C32.0042 8.37604 26.6143 1.80225 19.1272 0.310157C11.6402 -1.18194 4.14192 2.82333 1.21912 9.87594L16.3047 9.87594L19.2259 12.1454L0.472837 12.1454C0.158664 13.4097 -0.000130343 14.7076 -4.51453e-06 16.0103C-6.55669e-05 16.404 0.018718 16.7925 0.0471794 17.1786L22.147 17.1786L19.2259 19.448L0.371831 19.448C0.666289 20.7911 1.13398 22.0903 1.76308 23.3129L25.9408 23.3129L23.0197 25.5824L3.17466 25.5824C7.29836 31.1069 14.497 33.3689 21.0394 31.1961C27.5819 29.0233 31.9971 22.9042 31.9965 16.0103L32 16.0103Z" fill="#F9FAFB"/>
    </svg>
    