<svg width="64" height="65" viewBox="0 0 64 65" fill="none" xmlns="http://www.w3.org/2000/svg">
    <path fill-rule="evenodd" clip-rule="evenodd"
        d="M64 32.5206C64.0084 17.2521 53.2285 4.1045 38.2545 1.12031C23.2804 -1.86388 8.28384 6.14667 2.43823 20.2519L32.6095 20.2519L38.4518 24.7908L0.945674 24.7908C0.317328 27.3194 -0.000260685 29.9151 -9.02906e-06 32.5206C-0.000131134 33.3079 0.037436 34.085 0.0943588 34.8571L44.294 34.8571L38.4518 39.396L0.743662 39.396C1.33258 42.0822 2.26797 44.6806 3.52615 47.1258L51.8817 47.1258L46.0394 51.6648L6.34932 51.6648C14.5967 62.7138 28.994 67.2379 42.0789 62.8922C55.1638 58.5465 63.9942 46.3084 63.993 32.5207L64 32.5206Z"
        fill="#B700D8" />
</svg>
    